# xmcd CD database file
#
# Track frame offsets:
#	150
#	37212
#	71014
#	92939
#	130273
#	143328
#	185820
#	213694
#	246329
#	289284
#	315485
#
# Disc length: 4220 seconds
#
# Revision: 0
# Processed by: cddbd v1.5.2PL0 Copyright (c) Steve Scherf et al.
# Submitted via: CDex 1.70beta2
#
DISCID=b3107a0b
DTITLE=Frederic Couderc - Kirkophonie
DYEAR=2007
DGENRE=Jazz
TTITLE0=Black and Tan Fantasy
TTITLE1=Black Diamonds
TTITLE2=Roland's Theme
TTITLE3=Phantoms
TTITLE4=The Inflated Tear
TTITLE5=Green Chimneys
TTITLE6=Conjuration
TTITLE7=Isfahan
TTITLE8=Oclupaca
TTITLE9=What a Difference a Day Made
TTITLE10=Cotorri
EXTD=YEAR: 2007
EXTT0=
EXTT1=
EXTT2=
EXTT3=
EXTT4=
EXTT5=
EXTT6=
EXTT7=
EXTT8=
EXTT9=
EXTT10=
PLAYORDER=
